<?xml version="1.0" encoding="utf-8"?>
<svg version="1.1" xmlns:xlink="http://www.w3.org/1999/xlink" width="47px" height="46px" xmlns="http://www.w3.org/2000/svg">
  <g transform="matrix(1 0 0 1 -498 -2282 )">
    <path d="M 32.8370535714286 40.4681919642857  C 35.7220982142857 38.9707961309524  38.0913318452381 36.9386160714286  39.9447544642857 34.3716517857143  C 39.5600818452381 31.7191220238095  38.7951078869048 29.5158110119048  37.6498325892857 27.76171875  C 36.5045572916667 26.0076264880952  34.8915550595238 24.9936755952381  32.8108258928571 24.7198660714286  C 31.6393229166667 25.9862351190476  30.244884672619 26.9745163690476  28.6275111607143 27.6847098214286  C 27.0101376488095 28.3949032738095  25.3009672619048 28.75  23.5 28.75  C 21.6990327380952 28.75  19.9898623511905 28.3949032738095  18.3724888392857 27.6847098214286  C 16.755115327381 26.9745163690476  15.3606770833333 25.9862351190476  14.1891741071429 24.7198660714286  C 12.1084449404762 24.9936755952381  10.4954427083333 26.0076264880952  9.35016741071429 27.76171875  C 8.20489211309524 29.5158110119048  7.43991815476191 31.7191220238095  7.05524553571429 34.3716517857143  C 8.90866815476191 36.9386160714286  11.2779017857143 38.9707961309524  14.1629464285714 40.4681919642857  C 17.0479910714286 41.965587797619  20.1603422619048 42.7142857142857  23.5 42.7142857142857  C 26.8396577380952 42.7142857142857  29.9520089285714 41.965587797619  32.8370535714286 40.4681919642857  Z M 30.6208147321429 23.3978794642857  C 32.587890625 21.47265625  33.5714285714286 19.1495535714286  33.5714285714286 16.4285714285714  C 33.5714285714286 13.7075892857143  32.587890625 11.3844866071429  30.6208147321429 9.45926339285714  C 28.6537388392857 7.53404017857143  26.2801339285714 6.57142857142857  23.5 6.57142857142857  C 20.7198660714286 6.57142857142857  18.3462611607143 7.53404017857143  16.3791852678571 9.45926339285714  C 14.412109375 11.3844866071429  13.4285714285714 13.7075892857143  13.4285714285714 16.4285714285714  C 13.4285714285714 19.1495535714286  14.412109375 21.47265625  16.3791852678571 23.3978794642857  C 18.3462611607143 25.3231026785714  20.7198660714286 26.2857142857143  23.5 26.2857142857143  C 26.2801339285714 26.2857142857143  28.6537388392857 25.3231026785714  30.6208147321429 23.3978794642857  Z M 45.1378348214286 14.0669642857143  C 46.3792782738095 16.9077380952381  47 19.8854166666667  47 23  C 47 26.1145833333333  46.3792782738095 29.0879836309524  45.1378348214286 31.9202008928571  C 43.8963913690476 34.7524181547619  42.2309337797619 37.1995907738095  40.1414620535714 39.26171875  C 38.051990327381 41.3238467261905  35.5559895833333 42.9624255952381  32.6534598214286 44.1774553571429  C 29.7509300595238 45.3924851190476  26.6997767857143 46  23.5 46  C 20.3177083333333 46  17.2752976190476 45.3924851190476  14.3727678571429 44.1774553571429  C 11.4702380952381 42.9624255952381  8.96986607142857 41.328125  6.87165178571429 39.2745535714286  C 4.7734375 37.2209821428571  3.10360863095238 34.7738095238095  1.86216517857143 31.9330357142857  C 0.620721726190476 29.0922619047619  0 26.1145833333333  0 23  C 0 19.8854166666667  0.620721726190476 16.9077380952381  1.86216517857143 14.0669642857143  C 3.10360863095238 11.2261904761905  4.7734375 8.77901785714286  6.87165178571429 6.72544642857143  C 8.96986607142857 4.671875  11.4702380952381 3.0375744047619  14.3727678571429 1.82254464285714  C 17.2752976190476 0.607514880952381  20.3177083333333 0  23.5 0  C 26.6822916666667 0  29.7247023809524 0.607514880952381  32.6272321428571 1.82254464285714  C 35.5297619047619 3.0375744047619  38.0301339285714 4.671875  40.1283482142857 6.72544642857143  C 42.2265625 8.77901785714286  43.8963913690476 11.2261904761905  45.1378348214286 14.0669642857143  Z " fill-rule="nonzero" fill="#ffffff" stroke="none" fill-opacity="0.925490196078431" transform="matrix(1 0 0 1 498 2282 )" />
  </g>
</svg>